<svg version="1.2" xmlns="http://www.w3.org/2000/svg" viewBox="0 0 2048 2048" width="2048" height="2048">
	<title>logo</title>
	<style>
		.s0 { fill: #ffffff } 
	</style>
	<path id="Path 0" fill-rule="evenodd" class="s0" d="m1011 184.7c318.2 0.1 591.3 0.5 607 0.8 22.1 0.5 32.6 1.1 47 3.1 10.2 1.3 21.2 2.9 24.5 3.5 3.3 0.6 11 2.7 17 4.6 6 2 14.4 4.9 18.5 6.5 4.1 1.6 8.8 3.5 10.5 4.3 1.7 0.7 5.5 2.4 8.5 3.8 3 1.4 8 3.6 11 5 3 1.3 11.3 5.9 18.5 10.2 7.2 4.3 16.4 10.1 20.5 12.8 4.1 2.8 12.2 8.7 18 13.1 5.7 4.5 15.6 13.1 21.9 19.1 6.3 6.1 15.9 16.6 21.5 23.5 5.5 6.9 14.1 18.8 19.1 26.5 5 7.7 11.5 18.1 14.3 23 2.8 4.9 6.4 11.9 8 15.5 1.7 3.6 5 12.1 7.5 19 2.4 6.9 5.6 16.1 7 20.5 1.4 4.4 3.4 11.4 4.6 15.5 1.1 4.1 3.2 12.9 7.4 31.5l0.8 87.5c0.5 48.1 0.8 307.5 0.4 1065.5l-3.7 17.5c-2.1 9.6-4.7 20.2-5.7 23.5-1 3.3-3.1 9.4-4.6 13.5-1.4 4.1-4.2 11.8-6.1 17-1.9 5.2-4.2 11.3-5.1 13.5-1 2.2-4.9 9.8-8.8 17-4 7.2-11.4 19.3-16.5 27-5.1 7.7-13 18.6-17.4 24.2-4.5 5.7-14.2 16.3-21.6 23.6-7.4 7.3-16.4 15.7-20 18.8-3.6 3.1-10.8 8.8-16 12.6-5.2 3.9-13.3 9.4-18 12.4-4.7 2.9-16.2 8.9-25.5 13.4-9.3 4.5-22 10-28 12.3-6 2.2-13.5 4.7-16.5 5.5-3 0.9-11.3 2.9-18.5 4.6-7.2 1.7-16.8 3.8-21.5 4.8-8.1 1.7-39.1 1.8-1295.5 1.8l-12-2.8c-6.6-1.5-16.7-3.8-22.5-5.1-5.8-1.2-13.2-3.1-16.5-4-3.3-1-10.3-3.6-15.5-5.8-5.2-2.2-13.8-6.1-19-8.7-5.2-2.5-13.6-6.8-18.5-9.5-4.9-2.7-12.1-7.2-16-10-3.8-2.7-10.4-7.4-14.5-10.5-4.1-3.1-10.4-8-14-11-3.6-2.9-10.7-9.5-15.8-14.5-5.2-5-12.6-12.9-16.6-17.6-4-4.7-9.9-12.1-13.3-16.5-3.3-4.4-8.5-11.8-11.6-16.5-3-4.7-9.1-15.5-13.6-24-4.4-8.5-9.4-18.9-11.2-23-1.8-4.1-5.6-15.6-8.6-25.5-2.9-9.9-6.2-22.3-7.3-27.5-1-5.2-2.7-13.8-3.6-19-1.6-8.8-1.8-36.3-2.4-356-0.5-190.6-0.6-443.9-0.3-563 0.2-119.1 0.8-224.4 1.4-234 0.5-10 1.9-22.9 3.3-30 1.3-6.9 4-17.9 6-24.5 2.1-6.6 5.1-16.1 6.7-21 1.7-4.9 7.7-18.4 13.3-30 6.5-13.2 13.7-26 19.4-34.5 5-7.4 12.1-17.3 15.9-22 3.7-4.7 13.1-14.8 20.8-22.5 7.7-7.8 18.7-17.8 24.5-22.4 5.8-4.6 13.7-10.5 17.5-13.1 3.9-2.6 10.4-6.7 14.5-9.2 4.1-2.5 12.2-7 18-10 5.8-3.1 16.6-8.2 24-11.3 7.4-3.2 15.3-6.4 17.5-7.2 2.2-0.8 6.9-2.4 10.5-3.5 3.6-1.1 8.1-2.4 10-2.9 1.9-0.5 6.4-1.3 10-1.9 3.6-0.5 13.5-2.2 22-3.6 11.2-2 20.9-2.9 35-3.3 10.7-0.4 279.8-0.6 598-0.4zm-630 94.7c-1.4 0.5-6.3 2-11 3.3-4.7 1.4-11.2 3.3-14.5 4.3-3.3 1-9.6 3.2-14 4.9-4.4 1.7-13.4 6.1-20 9.7-6.6 3.6-15.9 9.3-20.7 12.7-4.7 3.4-13.6 10.7-19.8 16.2-6.2 5.5-13.6 12.9-16.6 16.5-3 3.6-9.3 12.1-14.1 19-4.9 6.9-10.6 15.9-12.8 20-2.2 4.1-5.5 10.9-7.3 15-1.8 4.1-5.1 12.7-7.2 19-2.1 6.3-4.6 14.6-5.5 18.5-0.9 3.9-2.6 12.6-3.8 19.5l-2.1 12.5-0.6 1110c5.4 28.7 7.8 39.5 8.9 42.5 1 3 4.9 13.2 8.6 22.5 4.9 12.7 8.3 19.6 13.2 27 3.6 5.5 10 14.5 14.2 20 4.1 5.5 12 14.7 17.6 20.4 5.5 5.7 13.6 13.2 18 16.6 4.4 3.4 14.1 10.2 21.5 15.1 7.4 4.8 17.3 10.4 22 12.4 4.7 2.1 12.6 5.1 17.5 6.8 4.9 1.7 11.7 3.8 15 4.8 3.3 0.9 8.9 2.3 12.5 3.1 4.9 1 21.3 1.6 65 2.4 34.6 0.5 292.1 0.8 629.5 0.6 446.7-0.3 572.3-0.6 577-1.6 3.3-0.6 11-2.6 17-4.2 6-1.7 17.1-5.4 24.5-8.1 7.4-2.8 17.5-7 22.5-9.5 5-2.5 13.7-7.7 19.5-11.6 5.8-3.8 14.1-9.8 18.5-13.3 4.4-3.4 11.9-10 16.6-14.6 4.7-4.5 12.1-12.6 16.4-17.8 4.3-5.2 10.1-12.9 12.7-17 2.7-4.1 7.8-13.1 11.2-20 3.5-6.9 8-16.8 10.1-22 2.1-5.2 4.8-13.5 6-18.5 1.3-5 3.1-16.2 4.1-25 1.8-15.4 1.9-37.4 1.9-565 0-523.2-0.1-549.7-1.8-564-1-8.2-2.4-17.9-3.2-21.5-0.8-3.6-2.6-10.3-4-15-1.5-4.7-6.1-15.9-10.3-25-4.7-10.5-10.2-20.5-15-27.5-4.1-6.1-11.1-15.7-15.6-21.4-4.4-5.7-10.3-12.5-13.1-15.2-2.7-2.6-9.8-8.7-15.6-13.6-5.8-4.8-15.7-12-22-15.9-6.3-3.9-14.6-8.7-18.4-10.6-3.8-2-13.1-5.7-20.5-8.2-7.4-2.6-17.8-5.8-23-7.2-5.2-1.3-13.8-2.9-19-3.5-6.4-0.7-196.8-0.9-579-0.7-313.2 0.2-596.3 0.5-629 0.8-32.7 0.4-60.6 1-62 1.4zm127 145c119.6 0.1 125.7 0.2 130.5 2 2.8 1 7.5 3 10.5 4.4 3.4 1.6 8.4 5.5 13.1 10.2 4.2 4.1 8.5 9.3 9.6 11.5 1.2 2.2 2.9 6.7 3.9 10 1.8 5.7 1.9 12.2 1.9 263l-2.7 8c-1.7 5.2-4.4 10.3-7.5 14.4-2.6 3.6-7.3 8.6-10.3 11.1-3 2.5-8.1 5.6-11.2 6.8-3.2 1.2-8.8 2.7-12.5 3.2-4.5 0.7-51.6 1-265.8 0.5l-5.5-2.2c-3-1.2-7.7-3.7-10.4-5.5-2.7-1.8-7-6-9.7-9.3-2.6-3.3-6.4-9.4-12-21l0.6-263 2.3-6.5c1.3-3.6 3.8-9.1 5.5-12.4 1.8-3.2 5.9-8.4 9.2-11.6 3.8-3.7 8.5-7 13-9 4.8-2.3 9.3-3.5 14.5-4 4.1-0.4 64-0.7 133-0.6zm-102.5 75.1l-0.5 197.5c7.4 1.2 44.6 1.5 87.5 1.4 45.8 0 85-0.5 95-1.2 9.4-0.6 17.2-1.4 17.5-1.7 0.3-0.4 0.6-45 0.7-99.1l0.2-98.4c-146.8 0.3-191.9 0.6-194.9 0.9zm508.5 8.7c71.2-0.1 133.5 0.2 138.5 0.7 6.9 0.6 10.6 1.5 15.8 3.9 3.8 1.8 8.8 5.3 11.5 8 2.6 2.6 6 7.2 7.5 10.2 1.5 3 3.3 8.4 3.9 12 0.9 5 0.9 8.1 0 13.5-0.7 3.9-2.5 9.7-4.1 13-1.8 4.1-4.5 7.5-8.2 10.8-3 2.6-7.6 5.9-15.4 10.2l-147 0.3c-96.4 0.2-148.2 0-150.5-0.7-1.9-0.5-6.3-2.8-9.7-5-4.3-2.8-7.7-6.1-10.7-10.3-2.4-3.5-5.1-8.1-6-10.3-1.2-2.8-1.6-7.1-1.6-14.5 0-9.8 0.2-10.9 3.2-17 2-4.1 5.6-8.9 9.7-13.1 5.1-5 7.9-7 12.1-8.4 3-1 9.1-2.2 13.5-2.5 4.4-0.3 66.3-0.7 137.5-0.8zm-51 225.2c45.1 0.2 47.9 0.4 54.5 2.4 3.9 1.1 10.4 3.5 14.5 5.3 4.1 1.7 10.4 5.1 14 7.5 3.6 2.3 9 6.5 12 9.2 3 2.7 8 8.2 11.1 12.3 3.1 4.1 7.3 10.3 9.2 13.9 2 3.6 5.1 10.3 7 15 1.8 4.7 4.1 11.4 5 15 0.9 3.6 2.8 11.5 4.2 17.5 1.4 6.1 3.2 13.4 5.5 21.5l668.5 0.5 7 2.6c3.8 1.4 9.7 4.3 12.9 6.5 3.3 2.1 8 6.2 10.4 8.9 2.5 2.8 5.9 7.9 7.6 11.5 2.8 6 3.1 7.5 3.4 18.5 0.2 6.9-0.1 14.3-0.8 17.5-0.6 3-2.9 11.8-5.1 19.5-2.1 7.7-5 19.4-6.4 26-1.4 6.6-4.8 20.1-7.5 30-2.8 9.9-7.1 25.7-9.6 35-2.5 9.4-5.4 21.5-6.5 27-1.1 5.5-3.5 15.2-5.4 21.5-1.8 6.3-5.5 19.6-8 29.5-2.6 9.9-6.2 23.6-8 30.5-1.9 6.9-3.7 14.5-4 17-0.4 2.5-1.6 7.9-2.7 12-1.1 4.1-3.8 12.5-6 18.5-2.2 6.1-6.1 15.3-8.7 20.5-2.7 5.2-6.5 12.2-8.6 15.5-2.1 3.3-6.4 9.2-9.5 13-3.2 3.9-8.4 9.5-11.6 12.5-3.3 3.1-8.4 7.6-11.4 10-3 2.5-7 5.5-8.7 6.8-1.8 1.2-7.9 4.5-13.5 7.3-5.7 2.7-14.8 6.6-20.3 8.4-5.5 1.9-13.8 4.2-18.5 5.1-7.1 1.3-21.4 1.7-86.5 2.4-42.9 0.5-135.7 0.9-206.2 0.9-102.2 0.1-128.2 0.4-127.9 1.4 0.2 0.7 2.9 10.4 6 21.7 3.4 12.2 7 22.9 8.9 26.4 2.8 5.1 3.9 6.2 13.2 10.1l448 1 6 3c3.3 1.6 8.2 5 10.8 7.5 2.7 2.5 6.1 6.5 7.7 9 1.6 2.5 3.8 7.4 5 11 1.7 5 2.1 7.9 1.7 12.5-0.3 3.3-1.7 8.9-3.1 12.5-1.4 3.6-4.5 8.7-6.8 11.4-2.4 2.7-7 6.8-10.3 9.1-3.3 2.4-8.5 5.1-11.5 6.1-5.3 1.9-12.8 1.9-457.5 1.9l-9.5-3.2c-5.2-1.8-14-5.1-19.5-7.3-5.9-2.4-13.2-6.4-17.9-9.8-4.3-3.1-12.6-10.6-18.3-16.7-9.3-9.8-11.1-12.2-15.8-22-2.9-6-6.9-15.3-8.8-20.5-2-5.2-6-18.9-9-30.5-3-11.5-7.4-29.8-9.7-40.5-2.4-10.7-7.3-31.2-11.1-45.5-3.7-14.3-7.9-31.6-9.3-38.5-1.4-6.9-6.9-29.4-12.2-50-5.3-20.6-10.9-42.7-12.4-49-1.6-6.3-4-16.9-5.4-23.5-1.4-6.6-5.8-23.9-9.6-38.5-3.9-14.6-8.6-33.7-10.4-42.5-1.8-8.8-3.5-16.4-3.9-17-0.3-0.5-4-14.3-8.1-30.5-4.2-16.2-9.3-36.5-11.5-45-2.1-8.5-5.6-22.7-7.6-31.5-2.1-8.8-5.3-20.7-7.1-26.5-1.8-5.8-4.8-12.9-6.6-15.9-1.8-3-4.6-6.4-6.1-7.5-2.2-1.6-5.1-2.2-12-2.7-5.1-0.4-21.1-0.5-35.7-0.2-16.5 0.4-30.3 0.2-36.5-0.5-5.5-0.6-12.2-1.9-15-2.8-3.6-1.3-6.8-3.5-11.6-8.3-4.1-4.1-7.8-9-9.9-13.1-2.2-4.5-3.4-8.4-3.7-13-0.4-4.5 0-8.3 1.2-12.5 0.9-3.3 2.6-7.7 3.6-9.7 1-2.1 4.5-6.6 7.8-10 3.5-3.8 8.4-7.7 12.2-9.7 4.1-2.2 8.5-3.7 12.4-4.2 3.3-0.4 27.4-0.6 53.5-0.5zm162 210.6c1 7.4 2.8 15.6 4.7 23 1.9 7.4 5.9 23.9 8.9 36.5 3 12.7 7.4 31.3 9.9 41.5 2.5 10.2 5.5 22.1 6.7 26.5 1.1 4.4 3.6 13.6 5.5 20.5 1.8 6.9 4.7 18.6 6.4 26 1.6 7.4 6.1 26.2 10 41.8 3.8 15.5 7.8 31 9 34.5l2 6.2c82.5 1.2 168.3 1.5 243.9 1.5 75.6-0.1 146.7-0.5 158-1 19.5-0.8 21-1 30-4.1 9.1-3.2 9.9-3.7 18.9-12.3 8.1-7.9 9.9-10.3 13.7-18.1 2.3-4.9 6.3-15.1 8.7-22.5 2.5-7.4 7.2-24.7 10.6-38.5 3.3-13.7 6.9-28.6 7.9-33 1.1-4.4 3.6-13.6 5.6-20.5 2.1-6.9 7.5-27.8 12.2-46.5 4.6-18.7 10-40.1 11.9-47.5 1.9-7.4 3.2-13.7 2.9-14-0.3-0.3-127.8-0.5-283.2-0.6-155.5 0-287.5 0.1-293.4 0.3zm-388.6-83.5l6.6 2.2c3.5 1.2 9.3 4.2 12.7 6.7 3.4 2.5 8 7 10.1 9.8 2.2 2.9 4.8 7.1 5.9 9.3 1.1 2.2 2.9 6.7 3.9 10 1.8 5.7 1.8 12.2 1.8 137.5-0.1 120.8-0.3 132.1-1.8 138.5-1 3.8-3.2 9.2-4.9 11.9-1.8 2.7-5.8 7.3-9 10.3-3.5 3.2-8.8 6.7-13.5 8.9-6.2 3-9.6 3.9-17.2 4.6-5.5 0.5-63 0.7-133.6 0.5-108.7-0.3-124.5-0.5-128.5-1.9-2.4-0.8-7.1-2.8-10.5-4.4-3.3-1.6-8.4-5.3-11.5-8.4-3.1-3-6.9-7.8-8.5-10.5-1.6-2.8-4-8.2-8-19l-0.2-131.5c-0.2-106.2 0-132.5 1.1-136.5 0.7-2.8 2.5-7.3 4-10 1.5-2.8 4.7-7.6 7.2-10.8 2.4-3.1 6.6-7.1 9.2-8.9 2.6-1.7 7.2-4.1 10.2-5.2 3.1-1.1 9.2-2.3 13.5-2.6 4.4-0.4 65-0.6 261.1-0.5zm-231.6 74.5v201c5.9 1 50.7 1 103.5 0.7 52.8-0.3 96.3-0.9 96.5-1.2 0.3-0.4 0.7-35.4 0.9-77.8 0.2-42.5 0-87.2-0.5-99.4-0.8-21-1-22.2-2.9-22.7-1.1-0.3-43.1-0.8-93.5-1-50.3-0.2-94.3-0.2-97.7 0zm397.5 41.2c11.5 0 25.5 0.2 31 0.7 7.5 0.5 11.1 1.3 14.5 3 2.5 1.3 6.2 3.8 8.3 5.5 2.1 1.7 5.4 5.5 7.3 8.4 1.8 2.8 4.3 7.5 5.4 10.2 1.6 4 2 7.3 2 16.3-0.1 10.5-0.3 11.6-3.2 17.7-1.8 3.7-5.4 8.6-8.3 11.5-2.8 2.8-8.3 6.7-19.5 12.5l-72.5-0.1-6-3.2c-3.2-1.7-8-5.2-10.5-7.7-2.5-2.5-6.2-7.9-8.3-12-3.7-7.4-3.8-7.6-3.7-19.5 0-11 0.2-12.4 2.7-17.5 1.5-3 5.7-8.4 9.3-12 4.1-4.2 8.7-7.6 12.5-9.4 3.3-1.6 8.7-3.2 12-3.6 3.3-0.4 15.5-0.8 27-0.8zm-165 321.3l7 2.8c3.8 1.5 9.6 4.8 12.7 7.2 3.2 2.5 7.7 7.1 10 10.3 2.3 3.1 5.3 8.4 6.6 11.7 2 5 2.6 8.6 3.3 21.5 0.4 8.5 0.8 62.5 0.8 120 0 57.5-0.4 111.9-0.8 121-0.7 14.4-1.2 17.3-3.5 23-1.4 3.6-4.6 9.1-7.1 12.3-2.5 3.1-7.3 7.8-10.8 10.3-3.4 2.5-9.8 5.9-22.2 10.8l-89.5 0.3c-49.2 0.2-108.6 0-174.5-1.2l-8-3.9c-6-2.8-9.8-5.5-15.2-10.9-5.3-5.4-8.1-9.2-14.8-23.2l-0.5-273 4-8.2c2.8-5.8 6-10.4 10.7-15.4 5.2-5.4 8.6-7.9 14.3-10.7 5.5-2.6 9.5-3.7 15-4.2 4.1-0.4 64.9-0.7 262.5-0.5zm-232.5 75.5v200.5c135.2-0.3 180.1-0.7 187-1.1l12.5-0.6c-1.2-16.5-1.5-61.5-1.5-110.5v-89.3c-145.3 0.3-189.9 0.5-192.8 0.7zm366.6 28l131.9 0.5 6.4 3.5c3.6 2 8.9 6.1 12.1 9.5 3.6 3.9 6.5 8.1 8.1 12 1.9 4.9 2.4 7.7 2.3 15 0 6.7-0.6 10.5-2.2 15-1.3 3.3-4 8.4-6.2 11.2-2.2 2.9-6.3 7-9.2 9.2-2.9 2.1-8.6 5.1-20.3 9.4l-53.5 0.4c-29.4 0.2-57.5 0-62.5-0.5-6.7-0.6-10.6-1.6-15.7-4-3.7-1.8-8.9-5.2-11.5-7.6-2.6-2.4-6-6.6-7.5-9.2-1.4-2.7-3.3-7.2-4.2-9.9-0.8-2.8-1.5-8-1.5-11.8 0-3.7 0.6-9.1 1.4-12 0.8-2.8 3.2-7.9 5.3-11.2 2.1-3.3 5.9-7.7 8.3-9.7 2.4-2.1 7.6-5.1 11.4-6.8zm373.8 53.1c13.9 0 22 0.4 27.5 1.4 5 1 11.3 3.3 17.7 6.5 5.5 2.7 13.2 7.3 17 10.2 3.9 2.9 9.3 7.6 12 10.3 2.8 2.8 7.2 7.9 9.7 11.5 2.6 3.6 6.5 10.1 8.7 14.5 2.2 4.4 4.9 11.2 5.8 15 1.5 5.7 1.8 11.2 1.8 51l-3.5 10c-2 5.7-5.8 13.8-9 18.8-3 4.8-7.9 11.6-11 15.2-3 3.5-8.4 8.8-12 11.7-3.5 2.9-10.7 7.6-16 10.4-5.2 2.9-12.4 6.1-16 7.3-3.5 1.1-9.4 2.5-13 3.1-3.5 0.5-10.3 1-15 1-4.6 0-12.5-0.4-17.5-0.9-4.9-0.5-11.2-1.6-14-2.5-2.7-1-8.1-3.1-12-4.8-3.8-1.7-10.8-5.5-15.5-8.5-4.6-3.1-12.1-9.2-16.6-13.7-4.9-4.9-10.9-12.4-15.2-19.1-4.5-6.8-8.2-14-9.9-19-2.7-7.8-2.8-8.5-2.8-31.5 0-22 0.2-23.9 2.4-30.5 1.3-3.8 3.5-9.2 4.9-12 1.4-2.7 4.3-7.7 6.6-11 2.2-3.3 6.7-8.8 10.1-12.3 3.3-3.5 9.4-9.2 13.5-12.7 4.2-3.4 10.9-8.1 15-10.3 4.2-2.2 9.8-4.8 12.5-5.7 2.8-0.9 7.1-2 9.5-2.5 2.5-0.4 13.4-0.8 24.3-0.9zm-13.3 67.1c-2.4 1.2-6.7 4.5-9.5 7.3-3.6 3.6-5.5 6.6-6.8 10.5-1 3-2 7.5-2.4 10-0.4 3.2 0.1 6.8 1.7 12 2 6.6 2.9 8.2 8.1 13.3 3.3 3.1 8.3 6.8 11.2 8.1 2.9 1.4 7.3 2.8 9.7 3.1 3.7 0.6 6.1 0.1 12.5-2.3 5.6-2.1 9.7-4.5 13.4-7.9 3-2.6 6.8-7.3 8.5-10.3 2.8-4.9 3.1-6.3 3.1-13.5 0-7-0.3-8.6-2.9-13-1.6-2.7-4.8-7-7-9.4-2.2-2.4-5.6-5.4-7.6-6.6-1.9-1.2-5-2.7-7-3.2-1.9-0.6-5-1.3-7-1.6-1.9-0.2-5.7 0-8.5 0.4-2.7 0.5-7 1.9-9.5 3.1zm381.5-66.8c16.1 0.3 22.5 0.7 27 2 3.3 1 10.5 3.9 16 6.7 6.1 3 13.6 7.8 19 12.2 5 4.1 11.9 10.7 15.4 14.8 3.6 4.3 8.1 11.2 10.7 16.4 2.4 5 5.8 13.3 7.5 18.5 2.7 8.2 3.2 11.4 3.7 23 0.4 10.5 0.1 15.4-1.2 22-1 4.7-3.5 13-5.7 18.5-2.2 5.5-5.8 13.2-8.1 17-2.3 3.9-7.3 10.3-11.2 14.4-3.9 4-10 9.6-13.6 12.2-3.5 2.7-9.8 6.7-14 8.9-4.1 2.1-10.5 5-14.2 6.5-4.4 1.6-10.4 2.9-17.5 3.5-5.9 0.6-14 1-18 1-4 0-10.5-0.5-14.5-1.1-4-0.5-10-2-13.3-3.1-3.3-1.1-10.2-4.2-15.5-6.8-5.2-2.6-12.4-6.9-16-9.5-3.5-2.6-9.2-7.5-12.5-10.8-3.3-3.4-7.7-8.8-9.8-11.9-2-3.2-5.1-8.6-6.8-12-1.7-3.5-4.2-9.1-5.5-12.5-1.5-4-2.8-10.5-3.5-18-0.6-6.5-0.8-16.5-0.5-22.3 0.4-5.8 1.3-13 2-16 0.8-3 2.2-7.7 3.2-10.5 0.9-2.7 2.6-6.8 3.7-9 1.1-2.2 3.9-6.9 6.2-10.5 2.4-3.6 6.9-9.2 10.2-12.5 3.2-3.3 7.5-7.4 9.4-9.1 1.9-1.7 5.7-4.6 8.4-6.6 2.8-2 8.6-5.3 13-7.5 4.5-2.2 11-4.7 14.5-5.6 3.6-0.9 7.5-1.8 8.5-2.1 1.1-0.2 11.5-0.3 23-0.2zm-18.5 67.9c-1.9 1.4-4.9 4-6.7 5.8-1.9 1.9-4.3 5.4-5.5 7.9-1.9 3.9-2.3 6.2-2.3 16.1 0 11.3 0.1 11.7 3 15.9 1.7 2.3 4.8 5.9 7 8 2.6 2.4 6.5 4.5 11 6 5.6 1.8 8.2 2.2 12.8 1.7 3.2-0.4 8.1-1.7 11-3 2.9-1.2 7.2-4.2 9.5-6.5 2.3-2.3 5.4-6.5 6.7-9.4 2.1-4.4 2.5-6.8 2.5-14.3 0-8.1-0.2-9.4-2.7-13-1.5-2.3-4.3-6-6.3-8.3-1.9-2.4-6.1-5.6-9.5-7.3-4.6-2.5-7.5-3.2-13-3.5-3.8-0.2-8.5 0.1-10.5 0.6-1.9 0.5-5 2-7 3.3zm-924-996.2c3.1 0 7.3 0.5 9.5 1.2 2.1 0.7 5.9 3 8.4 5.2 2.4 2.2 5.8 6.7 7.4 10 1.8 3.6 3.2 8.2 3.5 11.5 0.3 4-0.1 7.3-1.6 11.8-1.2 3.4-3.3 8.1-4.8 10.5-1.5 2.3-4.5 6.5-6.7 9.2-2.2 2.8-6.8 7.9-10.2 11.5-3.4 3.6-12.2 12.8-19.6 20.5-7.3 7.7-21.5 22.2-31.4 32.2-14.8 15-19 18.7-24 21-4.2 1.9-8 2.8-13 3.1-6.1 0.3-7.6 0-13-2.6-3.8-2-10.8-7.5-19.5-15.4-7.4-6.9-15.1-14.4-17.2-16.9-2-2.4-5.9-6.9-8.7-9.9-2.8-3-6.8-8.8-8.8-12.9-3.2-6.3-3.7-8.4-3.6-13.5 0-3.6 0.9-7.9 2.1-10.6 1-2.5 4.1-6.8 6.8-9.6 2.7-2.8 7-6.1 9.4-7.4 3.6-1.8 6.2-2.4 12.1-2.4 6.7-0.1 8.3 0.3 15 3.6 4.5 2.3 10.1 6.2 14.2 10 3.6 3.5 7.8 7.4 11.7 11.3l15.4-16c8.4-8.8 19.2-20 23.9-25 4.7-4.9 13.1-13 18.6-18 5.6-5 12-9.7 14.4-10.7 2.3-0.9 6.7-1.7 9.7-1.7zm-2 445.3c3.1 0.2 7.6 1.4 10 2.6 2.5 1.3 6.1 3.5 7.9 4.9 1.9 1.4 4.6 4.9 6 7.6 2.2 4.3 2.6 6.3 2.6 13.5 0 7.4-0.4 9.3-2.9 14.5-2.5 5-8.8 11.9-38.5 41.9-19.6 19.7-39.2 38.9-43.6 42.7-5 4.3-9.8 7.4-13 8.5-3.3 1.2-6.7 1.5-10.5 1.2-3-0.3-7.5-1.4-10-2.5-2.4-1.1-6.3-3.5-8.5-5.4-2.2-1.8-10.8-10.1-19.3-18.3-8.4-8.3-18.1-18.5-21.6-22.6-3.5-4.1-7.3-9.5-8.4-12-1.4-2.9-2.1-6.5-2.1-10.5 0-3.3 0.5-7.7 1.2-9.8 0.7-2.2 3.5-6.4 6.2-9.5 3-3.3 7.1-6.5 10-7.8 3.9-1.8 6.8-2.4 12.8-2.4 6.4 0 8.9 0.5 14 2.9 4.6 2 9.2 5.5 27.7 23.1l4.3-3.9c2.3-2.2 14.1-13.8 26.2-25.7 12.1-11.9 24.3-23.4 27-25.5 2.8-2.1 7.7-4.8 11-5.9 4.1-1.3 7.8-1.9 11.5-1.6z"/>
</svg>