<svg version="1.2" xmlns="http://www.w3.org/2000/svg" viewBox="0 0 2048 2048" width="2048" height="2048">
	<title>ChatGPT Image Mar 28, 2025, 02_42_03 AM</title>
	<style>
		.s0 { fill: #ffffff } 
	</style>
	<path id="Path 0" fill-rule="evenodd" class="s0" d="m1020.5 194.4c473.9 0.2 621.4 0.5 626 1.4 3.3 0.7 10.7 1.9 16.5 2.7 5.8 0.8 14.5 2 19.5 2.6 5 0.5 12.6 2.1 17 3.5 4.4 1.4 10 3.3 12.5 4.1 2.5 0.9 8.8 3.4 14 5.5 5.2 2.2 13.2 5.7 17.8 7.9 4.5 2.1 8.4 3.9 8.7 3.9 0.3 0 6.5 3.5 13.8 7.7 7.2 4.2 18.4 11.2 24.7 15.5 6.3 4.2 15.8 11.4 21 15.9 5.2 4.5 12 10.5 15 13.3 3 2.8 7.8 7.6 10.5 10.7 2.8 3.1 8.9 10.5 13.6 16.5 4.7 6 12.3 16.6 16.8 23.6 4.4 7.1 8.1 13 8.1 13.3 0 0.3 1.2 2.4 2.7 4.7 1.4 2.4 4.6 7.9 6.9 12.3 2.4 4.4 5.4 11.1 6.7 15 1.3 3.9 5.2 15.1 8.6 25 3.4 9.9 7 22.7 8.1 28.5 1 5.8 2.7 13.6 3.7 17.5 1.6 6.5 1.7 21.7 2.3 209.5 0.3 111.4 0.5 366.3 0.4 566.5 0 266.9-0.4 366.7-1.2 374-0.7 5.5-1.6 11.3-2.2 13-0.6 1.7-1.9 8-2.9 14-1.1 6.1-3.5 15.2-5.6 20.5-2 5.2-4 10.8-4.4 12.5-0.5 1.7-2.2 6.5-4 10.7-1.7 4.3-3.1 8.3-3.1 8.8 0 0.5-1.3 3.8-2.9 7.2-1.6 3.5-5.2 10.3-8 15.3-2.8 5-5.1 9.1-5.1 9.2 0 0.2-4.3 6.7-9.4 14.5-5.2 7.9-11 16.2-12.8 18.5-1.8 2.3-5.8 7.5-8.9 11.5-3.1 4-12.1 13.6-20 21.3-7.9 7.7-18.9 17.4-24.4 21.6-5.5 4.1-12.7 9.3-16 11.6-3.3 2.2-9.4 6-13.5 8.5-4.1 2.4-12.2 6.6-18 9.3-5.8 2.6-12.3 5.7-14.5 6.8-2.2 1.1-9.6 4.2-16.5 6.8-6.9 2.6-16.1 5.4-20.5 6.2-4.4 0.9-12.6 2.8-18.3 4.2-5.6 1.4-15 3.3-20.9 4.2-10.2 1.7-45.7 1.8-643.3 1.8-601.9 0-633.1-0.1-644-1.8-6.3-1-15.6-2.9-20.5-4.2-5-1.4-12.9-3.1-17.8-4-4.8-0.8-12-2.8-16-4.4-3.9-1.6-11.3-4.7-16.2-7-5-2.3-14-6.7-20-9.8-6.1-3.1-13.9-7.5-17.5-9.8-3.6-2.3-13.3-9.2-21.5-15.4-9-6.8-20.5-16.8-28.8-25-8.4-8.3-17.7-18.7-23.6-26.6-5.4-7.2-12.2-16.6-15.1-21-3-4.4-10-17-15.6-28-7.6-14.7-11.1-22.8-13.2-30.5-1.6-5.8-4.4-15-6.1-20.5-1.7-5.5-3.8-13.6-4.6-18-0.8-4.4-2.4-14.9-3.5-23.3-2-15-2-23-2.1-580 0-559.9 0-564.8 2-579.7 1.1-8.2 2.7-18.1 3.6-22 0.9-3.8 3.1-11.7 4.9-17.5 1.9-5.8 4.6-14.5 6.1-19.5 1.6-5.3 7.2-17.9 13.6-30.5 5.9-11.8 13.6-25.5 17.1-30.4 3.5-4.9 7.6-10.7 9.2-13 1.6-2.3 5.4-7.2 8.5-11.1 3-3.8 9.8-11.4 15.1-16.9 5.2-5.4 14.4-14 20.5-19 6-5.1 13.5-11.1 16.5-13.3 3-2.2 11.3-7.7 18.5-12.2 7.1-4.5 18.4-10.8 25-14.1 6.6-3.2 16.5-7.8 22-10 5.5-2.3 15.2-6 21.5-8.1 6.3-2.2 15.1-4.4 19.5-5 4.4-0.6 11.6-1.6 16-2.4 4.4-0.8 11.6-1.9 16-2.6 4.4-0.6 8.9-1.5 10-2 1.1-0.4 281-0.7 622-0.5zm-636 74.3c-3.3 0.6-11.6 2.7-18.5 4.8-6.9 2-16.6 5-21.5 6.7-5 1.6-12.4 4.6-16.5 6.6-4.1 2-12.2 6.4-18 9.7-5.8 3.3-13.7 8.4-17.5 11.4-3.9 2.9-11.9 9.6-17.8 14.9-6 5.4-13.5 12.6-16.6 16.2-3.2 3.6-6.6 7.9-7.7 9.5-1 1.7-4.4 6.4-7.5 10.5-3.1 4.1-7.8 11.1-10.4 15.5-2.7 4.4-6.1 10.7-7.5 14-1.5 3.3-4 8.9-5.5 12.5-1.6 3.6-4.6 11.7-6.8 18-2.1 6.3-5.2 18.3-6.8 26.5-1.6 8.3-3.4 20.9-3.9 28-0.7 8.8-1 190.6-0.8 561.5l0.3 548.5c5.1 27.9 7.2 38 8.1 40.5 0.9 2.5 4.5 11.7 8 20.5 3.5 8.8 6.4 16.7 6.4 17.5 0 0.8 3 6.2 6.7 12 3.6 5.8 8.6 13.2 11.1 16.5 2.6 3.3 6.8 8.9 9.5 12.5 2.6 3.6 9.4 11.2 15 16.9 5.6 5.7 12.4 12.3 15.2 14.6 2.7 2.3 11.2 8.6 18.7 13.9 7.6 5.3 17.1 11.2 21 13.2 4 2 12.5 5.7 18.8 8.1 6.3 2.5 12.8 4.9 14.5 5.4 1.6 0.5 7.7 2.3 13.5 3.9 7.2 2.1 15.3 3.6 26 4.6 13.5 1.3 95.1 1.5 624.5 1.7 495.5 0.1 611.7-0.1 623.5-1.2 10.3-0.9 18.1-2.3 26.7-4.7 6.8-1.9 12.9-3.4 13.5-3.4 0.7 0 2.4-0.6 3.8-1.3 1.4-0.7 6.8-2.8 12-4.6 5.2-1.8 14.2-5.5 20-8.3 5.8-2.7 13.2-6.9 16.5-9.2 3.3-2.4 10.7-7.5 16.5-11.4 5.8-3.9 15.1-11.3 20.6-16.4 5.6-5.1 13.8-13.6 18.4-18.8 4.5-5.2 11.4-14 15.3-19.5 4-5.5 10.1-15.8 13.6-23 3.5-7.1 8-16.8 10.1-21.5 2-4.7 5.1-13.7 6.8-20 1.9-6.9 3.6-16.1 4.2-23 0.5-6.3 1.4-14.7 2-18.5 0.6-4.5 0.9-205 1-551.3 0-474.3-0.2-546.2-1.5-559.5-0.8-8.3-1.9-18.8-2.5-23.2-0.5-4.4-2.5-13.2-4.4-19.5-1.9-6.3-4.6-14-5.9-17-1.4-3-5-10.8-8.1-17.3-3.1-6.4-5.6-11.9-5.6-12.2 0-0.3-2.9-4.9-6.4-10.3-3.5-5.3-9.5-13.6-13.3-18.3-3.7-4.7-8.1-10.3-9.8-12.4-1.7-2.1-3.1-4.1-3.2-4.4-0.1-0.3-5.2-5.1-11.4-10.6-6.2-5.5-14.4-12.5-18.3-15.5-3.9-3.1-13.6-9.5-21.6-14.2-8-4.8-16.8-9.4-19.5-10.3-2.8-1-6.1-2.3-7.5-3-1.4-0.7-9.3-3.4-17.5-6-8.3-2.6-19.3-5.5-24.5-6.5-8.2-1.6-16.2-1.9-59-2.3-27.2-0.2-311.2-0.1-631 0.3-403.7 0.5-583.3 1-587.5 1.7zm116.2 165.4c90-0.1 127.8 0.2 131.5 1 2.9 0.6 8 2.5 11.3 4.2 3.3 1.6 8.6 5.5 11.8 8.6 3.2 3.1 6.9 7.8 8.2 10.6 1.3 2.7 2.8 7.7 3.4 11 0.8 4.2 1.1 43.4 1.1 127.5 0 98.5-0.3 122.7-1.4 128-0.7 3.6-2.5 8.7-3.8 11.5-1.4 2.7-4.8 7.5-7.5 10.5-2.8 3-7 6.5-9.4 7.7-2.4 1.3-7.8 3.1-11.9 4-7 1.7-16.3 1.8-259.5 1.8l-7-2.3c-3.9-1.2-8.8-3.6-11-5.3-2.2-1.7-5.7-5.4-7.9-8.2-2.1-2.9-4.8-7.2-8.1-14.2l-0.3-127.5c-0.1-83.7 0.1-129.4 0.8-133 0.6-3 2.5-8.6 4.3-12.5 2-4.2 5.3-9 8.3-11.9 2.7-2.7 6.7-5.8 8.9-6.9 2.2-1.1 5.8-2.6 8-3.3 3.1-1 31.2-1.3 130.2-1.3zm-104 57.2c-1.6 2-1.7 9.5-1.7 106.7 0 82.7 0.2 104.9 1.2 106.3 1 1.3 3.9 2.2 11.3 3.2 7.8 1.1 23 1.5 68 1.4 31.9 0 73.3-0.4 92-1 18.7-0.5 36.5-1.4 39.5-1.8 4-0.6 6-1.5 7.3-3.2 1.7-2.3 1.8-7.5 1.5-106.1l-0.3-103.7-4.6-4.6c-159.9-0.2-207.8 0-209.4 0.2-1.7 0.2-3.9 1.4-4.8 2.6zm519 26.8c135-0.1 137.4-0.1 143.5 1.9 3.5 1.1 8.2 3.5 10.5 5.3 2.2 1.7 5.5 5.2 7.2 7.7 2.1 3 3.5 6.7 4.3 11 1 5.5 0.9 7.6-0.6 13.5-0.9 3.9-2.7 8.6-3.9 10.5-1.2 1.9-4.5 5.1-7.2 7.3-2.8 2.1-6.8 4.4-9 5-3 0.9-39.8 1.2-289 1.2l-5.5-2.6c-3-1.4-7.2-4.3-9.3-6.5-2.1-2.1-5-6.4-6.5-9.4-2.2-4.5-2.7-6.9-2.7-13 0.1-6.2 0.6-8.4 2.8-12.8 1.5-2.8 4.4-7.1 6.4-9.3 2.1-2.3 5.1-4.8 6.8-5.7 1.6-0.8 5.7-2 9-2.8 4.7-1 35.3-1.3 143.2-1.3zm-28.7 224.7c7.4 0.1 16.4 0.7 20 1.3 3.6 0.6 10.3 2.4 15 4 4.7 1.6 12.1 5 16.5 7.7 4.6 2.7 10.9 7.7 14.9 11.7 3.8 3.9 9.3 10.6 12.2 15 2.9 4.4 7.4 13 9.9 19 2.5 6 5.2 14.6 6.1 19 0.8 4.4 2.8 13.2 4.4 19.5 1.6 6.3 3.6 13.5 4.3 16 1 3.2 2.2 4.9 4.3 6 2.6 1.3 41.2 1.5 334.4 1.1 245.6-0.2 333.1 0 337.5 0.8 3.3 0.6 8.5 2.3 11.5 3.7 3 1.4 8 5 11 7.9 3.5 3.4 6.6 7.5 8.5 11.6 2.6 5.7 2.9 7.5 3 15.9 0 7.3-0.7 11.9-2.8 20-1.6 5.8-4.1 14.8-5.7 20-1.5 5.2-3.3 12.6-3.9 16.5-0.6 3.9-3.5 16-6.5 27-3 11-6 21.4-6.6 23-0.6 1.6-2.4 8.4-4 15-1.6 6.6-3.4 13.2-3.9 14.7-0.6 1.6-2 7.9-3.1 14-1.1 6.2-2.9 14-4 17.3-1.2 3.3-3.7 12.1-5.6 19.5-2 7.4-5 19.3-6.8 26.5-1.8 7.2-4.5 16.8-5.9 21.5-1.4 4.7-2.8 11.4-3.2 15-0.4 3.6-2.8 13-5.5 21-2.7 8-6.9 19-9.5 24.5-2.6 5.5-7.6 14.5-11.3 20-3.6 5.5-10 13.4-14.2 17.5-4.1 4.1-10.7 10-14.5 13.1-3.9 3.1-9.5 7.1-12.5 8.9-3 1.8-10 5.2-15.5 7.5-5.5 2.3-12.7 5-16 5.9-3.3 1-11.4 2.7-18 3.9-11.8 2.1-14.6 2.1-419.7 3.2l-2.5 3c-2 2.4-2.4 3.7-1.9 6.5 0.4 1.9 2 8 3.7 13.5 1.6 5.5 4.4 15.4 6.1 22 1.7 6.6 4.2 14 5.6 16.5 1.3 2.5 3.3 6.2 4.3 8.2 1.3 2.6 2.8 4 4.6 4.4 1.6 0.4 3.3 1 3.8 1.4 0.5 0.5 3.5 1.5 6.5 2.4 5 1.5 25.3 1.6 226 1.6 151.8 0 221.6 0.3 224 1 1.9 0.6 5.3 2.1 7.5 3.4 2.2 1.3 5.5 4.1 7.4 6.2 1.9 2.2 4.5 6.1 5.8 8.9 1.2 2.7 2.5 6.8 2.9 9 0.4 2.6 0 6.2-1.1 10-0.9 3.3-3 7.9-4.6 10.2-1.6 2.4-5.3 6.1-8.2 8.2-2.8 2.2-6.5 4.5-8.2 5.1-1.7 0.6-5.3 1.6-8 2.1-3.1 0.6-86.1 1-221.5 1-161.5 0.1-218.3-0.2-223.5-1.1-3.8-0.6-12.8-3.4-20-6.1-7.2-2.8-14.3-5.5-16-6.2-1.7-0.6-5.6-3.1-8.8-5.4-3.1-2.4-9.1-7.6-13.3-11.6-4.2-3.9-9.1-9.2-10.9-11.7-1.9-2.5-5-7.9-7-12-2.1-4.1-4.8-10.4-6.2-14-1.3-3.6-3.7-10.3-5.2-15-1.5-4.7-3.3-11-4-14-0.7-3-2.1-8.2-3.2-11.5-1-3.3-3-11.6-4.3-18.5-1.4-6.9-3.9-18.3-5.6-25.5-1.7-7.2-3.7-15.5-4.4-18.5-0.8-3-4.1-15.8-7.5-28.5-3.4-12.7-6.6-26.4-7.2-30.5-0.6-4.1-2.3-12-3.8-17.5-1.6-5.5-4.1-15.2-5.6-21.5-1.5-6.3-4.7-18.9-7.1-28-2.3-9.1-5.4-20.5-6.8-25.5-1.4-5-3.2-13-4-18-0.8-5-3.5-16.9-6-26.5-2.4-9.6-5.6-21.5-6.9-26.5-1.3-5-3.8-14.2-5.5-20.5-1.7-6.3-3.8-16-4.7-21.5-0.9-5.5-2-10.9-2.6-12-0.5-1.1-1.8-5.4-2.9-9.5-1.2-4.1-3.4-13.1-5-20-1.7-6.9-4.3-17.2-5.9-23-1.6-5.8-4.2-15.7-5.9-22-1.7-6.3-3.8-15.1-4.6-19.5-0.8-4.4-3.1-14.3-5.1-22-2-7.7-4.8-17.4-6.2-21.5-1.4-4.1-3.7-9.8-5.1-12.5-1.5-2.8-3.8-6.5-5.2-8.4-1.4-1.9-4.2-4.5-6.3-5.8-2.3-1.4-6.4-2.7-11-3.3-4.1-0.5-20.5-0.7-38.2-0.3-18.5 0.3-34.6 0.1-40-0.5-5-0.5-10.8-1.9-13-3-2.2-1-6.2-4.4-8.8-7.3-2.8-3.1-5.7-7.8-6.9-10.9-1.4-4-1.9-7-1.5-11 0.3-3.3 1.6-7.9 3.5-11.5 1.6-3.4 5.1-8 7.8-10.5 2.7-2.4 7.4-5.6 10.4-7 5.4-2.5 5.8-2.5 37.5-3 17.6-0.3 38.1-0.4 45.5-0.2zm128.2 194.6c-0.9 1.8-0.8 4.8 0.4 12.7 0.8 5.7 2.8 15.1 4.5 20.9 1.7 5.8 4.1 15.2 5.4 21 1.3 5.8 3.2 14.3 4.4 19 1.1 4.7 3.3 13.9 4.7 20.5 1.4 6.6 3.5 14.5 4.5 17.5 1 3 2.6 9.5 3.5 14.5 0.9 5 2.3 10.8 3.1 13 0.8 2.2 3.5 11.9 6 21.5 2.5 9.6 5.2 20.9 6 25 0.8 4.1 2.7 12.7 4.3 19 1.6 6.3 3.9 15.5 5 20.5 1.1 5 3.2 13.3 4.6 18.5 1.4 5.2 3.5 12.8 4.7 16.8 1.2 4 3.1 8.5 4.2 9.9 1.5 1.9 3.4 2.7 7.5 3.3 3 0.5 94.6 0.9 203.5 0.9 109.2 0 203.6-0.4 210.5-0.9 10.1-0.7 14-1.5 20.5-3.9 4.4-1.7 8.3-3.1 8.8-3.1 0.4 0 2.8-1.6 5.5-3.6 2.6-2 7.4-6.2 10.6-9.3 3.2-3.1 7.8-8.3 10.1-11.6 2.3-3.3 6-10.7 8.2-16.5 2.2-5.8 5.9-16.3 8.1-23.5 2.2-7.2 4.5-15.7 5.2-19 0.7-3.3 2.5-10.7 4.1-16.5 1.6-5.8 3.8-15.2 4.9-21 1.1-5.8 2.8-13 3.9-16 1-3 3.1-9.8 4.5-15 1.4-5.2 4.3-16.2 6.5-24.5 2.1-8.2 5.2-20.6 6.9-27.5 1.7-6.9 4.3-17.5 5.7-23.5 1.4-6 3.9-16 5.5-22 1.6-6 3-12.4 3-14 0-1.6-0.6-3.9-1.4-5-1.4-2-2.7-2-301.8-2.2-178.9-0.1-301.1 0.2-302.4 0.7-1.1 0.5-2.6 2-3.2 3.4zm-513.2-67.3c88.9-0.1 128.3 0.2 132.5 1 3.3 0.6 8.5 2.4 11.5 3.9 3 1.5 7.5 5 10 7.6 2.4 2.7 5.7 7.7 7.2 11.2 1.5 3.4 3.3 9.2 3.8 13 0.7 4.4 1 50.6 0.8 135.2-0.3 125.9-0.3 128.6-2.3 133.2-1.1 2.6-3.6 6.7-5.5 9.1-1.9 2.4-5.3 5.8-7.5 7.5-2.2 1.7-5.8 4-8 5-2.2 1.1-6.2 2.5-9 3.2-3.9 0.9-33.4 1.2-131.5 1.2-119.9-0.1-126.8-0.2-132.5-1.9-3.3-1.1-8-3-10.5-4.5-2.5-1.4-6.4-4.6-8.7-7.2-2.4-2.5-5.6-7.4-7.3-10.8-1.6-3.5-3.4-8.5-4-11.3-0.7-3.3-0.9-48.8-0.5-265l3.1-6.5c1.7-3.6 5.3-8.9 8-11.8 3-3.3 7-6.4 10.4-7.9 3-1.4 7.3-2.9 9.5-3.3 2.2-0.4 60.9-0.8 130.5-0.9zm-104.8 57.2l-2.3 2.2c0.1 206.1 0.2 212.6 1.9 214.3 1.2 1.4 4 2.1 10.2 2.6 4.7 0.5 52.2 0.6 105.5 0.2 93.2-0.5 97.1-0.6 99.5-2.4 1.4-1.1 2.8-3 3.2-4.3 0.3-1.3 0.6-46.5 0.6-100.4 0-53.9-0.3-100.6-0.6-103.7-0.4-3.1-1.4-6.4-2.2-7.2-0.8-0.9-3.7-2.1-6.5-2.7-3.7-0.9-31-1.3-101.5-1.4-53.1-0.1-98.5 0-101 0.2-2.8 0.3-5.3 1.2-6.8 2.6zm411.3 59c28.2 0.2 30.3 0.3 34.5 2.3 2.5 1.2 6.2 3.9 8.4 6 2.1 2.2 5.3 6.8 7 10.4 2.7 5.7 3.1 7.5 3.1 15 0 7-0.5 9.4-2.5 13.5-1.3 2.8-4.4 6.9-6.7 9.3-2.4 2.3-6.9 5.4-15.8 9.7h-65l-4.8-2.5c-2.7-1.4-6.5-4.1-8.5-6-2.1-1.9-5.1-6.2-6.7-9.5-2.7-5.3-3-7-3-15 0-7.4 0.4-9.8 2.3-13.2 1.2-2.4 3.9-6.1 6-8.4 2-2.3 5.3-5.1 7.2-6.2 1.9-1.2 6-2.9 9-3.9 4.8-1.5 9.2-1.7 35.5-1.5zm-269.5 320.4c62.9 0.2 92.2 0.6 96 1.4 3 0.6 7.8 2.2 10.5 3.4 2.8 1.3 7.3 4.8 10.3 7.9 2.8 3.1 6.3 8 7.7 10.9 1.4 2.8 2.9 7.9 3.5 11.2 0.6 3.8 1 51.6 1 130.5 0 76.7-0.4 126.8-1 130.5-0.5 3.3-2.3 8.7-3.9 12-1.9 3.8-5 7.9-8.8 11.4-3.2 2.9-7.8 6.4-10.3 7.6-2.5 1.3-7 3-10 3.9-5 1.5-18.1 1.6-259.5 1.1l-6.5-2.8c-3.6-1.5-8.6-4.4-11.1-6.5-2.5-2-6.1-5.7-8-8.2-1.9-2.4-4.5-7.1-8.4-16.5v-264l2.2-5.5c1.2-3 4.2-8.2 6.6-11.5 2.5-3.3 6.3-7.2 8.6-8.7 2.2-1.6 6.5-3.8 9.4-5 5-2.2 6.7-2.3 43.2-2.8 20.9-0.3 78.7-0.4 128.5-0.3zm-142.3 58.2c-1.7 1.5-1.8 7.2-1.7 107.4v105.7l4.8 5.5c160.2-0.6 207.6-1.1 208.7-1.5 1.1-0.4 2.9-2 3.9-3.6 1.9-2.8 1.9-3.9 0.9-23.9-0.6-12.4-0.8-55-0.6-104l0.5-83-5.4-5c-159.1-0.2-206.2-0.1-207.3 0.2-1.1 0.3-2.8 1.2-3.8 2.2zm501.8 45.6l5.8 2.8c3.1 1.5 7.8 4.8 10.3 7.5 2.8 2.8 5.3 6.9 6.6 10.2 1.5 4.2 1.9 7.1 1.6 12.5-0.3 5-1.2 8.6-3.2 12.5-1.5 3-4.2 7-5.9 8.8-1.8 1.8-5.2 4.6-7.7 6.2-2.5 1.7-7.6 3.6-11.5 4.5-5.7 1.2-16.8 1.5-62 1.5-47.9 0-55.7-0.2-60.5-1.6-3-0.9-7.3-2.9-9.5-4.4-2.2-1.5-5.3-4.2-6.9-6.1-1.6-1.9-4-5.6-5.2-8.4-1.9-3.9-2.4-6.7-2.4-13 0-6.2 0.5-9.1 2.3-13 1.3-2.7 4.1-7 6.3-9.4 2.1-2.4 6.2-5.5 8.9-6.8 2.8-1.4 6.8-2.9 9-3.3 2.2-0.5 31-0.8 124-0.5zm253.5 53c6.3 0.3 14.9 1.1 19 2 4.1 0.8 10.2 2.9 13.5 4.5 3.3 1.6 8.8 4.7 12.3 7 3.4 2.2 9.2 6.9 13 10.4 3.7 3.5 9 9.6 11.9 13.7 2.8 4.1 6.5 10.3 8.2 13.9 1.7 3.6 3.8 9.9 4.7 14 1 5 1.6 12.5 1.6 22.5 0 9.9-0.6 17.5-1.6 22.5-0.9 4.1-3.2 10.9-5.2 15-1.9 4.1-5.7 10.4-8.2 14-2.6 3.6-7.4 9.4-10.7 12.9-3.3 3.5-8.7 8.2-12 10.4-3.3 2.3-10 6-15 8.4-4.9 2.3-12.6 5-17 5.9-6.2 1.3-11.5 1.5-23.5 1.2-12.6-0.4-16.7-0.9-22-2.7-3.6-1.2-9.7-3.9-13.5-5.8-3.8-1.9-10.3-5.8-14.4-8.7-4.1-2.8-10.1-8-13.5-11.7-3.4-3.6-7.7-9-9.7-12-2-2.9-4.4-6.7-5.5-8.4-1-1.7-2.8-5-4-7.5-1.1-2.5-2.6-6.9-3.3-9.7-0.6-3-1.1-13.7-1.1-24 0-13.9 0.4-20.4 1.6-24.8 0.8-3.3 2.9-8.7 4.7-12 1.7-3.3 5-8.7 7.3-12 2.3-3.3 8.4-10 13.5-15 5.6-5.3 12.7-10.9 17.4-13.7 4.4-2.5 10-5.3 12.5-6.1 2.5-0.8 5.8-1.8 7.5-2.2 1.7-0.4 6.8-1.1 11.5-1.5 4.7-0.5 13.7-0.7 20-0.5zm-23 59.5c-3.6 2.2-7.6 5.4-9.1 7.2-1.4 1.8-3.5 6.3-4.7 10.1-1.2 3.7-2.2 8.8-2.2 11.5 0 2.6 1.2 7.9 2.6 11.7 2 5.5 3.4 7.8 7.1 11 2.6 2.2 6 4.9 7.7 6 1.7 1 4.7 2.6 6.6 3.3 1.9 0.8 5.5 1.7 8 1.9 2.9 0.3 5.9-0.1 8.5-1.2 2.2-1 6.3-2.7 9-3.9 2.8-1.1 7-4.1 9.4-6.6 2.4-2.5 5.6-7.1 7.2-10.2 2.3-4.6 2.9-7.1 2.9-12.3 0-4.9-0.6-7.7-2.4-11.2-1.3-2.7-4.1-6.9-6.2-9.5-2.2-2.5-5.5-5.7-7.4-7-1.9-1.4-5.1-3.2-7-4-1.9-0.9-5.7-1.9-8.5-2.1-2.7-0.3-7.2-0.1-10 0.4-2.8 0.5-7.9 2.6-11.5 4.9zm390-59.3c5.8 0.3 13.7 1.3 17.5 2.3 3.8 1 10.4 3.4 14.5 5.5 4.1 2.1 10.2 5.7 13.5 8 3.3 2.4 9.6 7.8 14 12.2 4.9 4.7 9.5 10.4 11.7 14.3 2 3.6 5.1 10.3 6.8 15 1.7 4.7 3.8 11.4 4.7 15 0.8 3.6 1.5 11 1.4 16.5 0 7.4-0.6 12.6-2.6 20-1.4 5.5-4.9 14.9-7.8 21-4 8.3-6.9 12.7-11.8 17.9-3.5 3.8-9.8 9.4-13.9 12.5-4.1 3-11.3 7.4-16 9.8-4.7 2.3-11.2 5-14.5 5.9-3.8 1-11.6 1.8-21 2.1-11.7 0.4-16.8 0.2-23-1.1-4.4-0.9-12-3.6-17-6-4.9-2.3-11.7-5.9-15-8-3.3-2.2-8.9-6.4-12.5-9.6-3.6-3.1-8.1-8.1-10.1-11.1-2.1-3-5.6-9-8-13.4-2.4-4.4-5.2-10.9-6.2-14.5-1.2-4.3-2-11.3-2.4-21-0.4-9.3-0.1-17 0.6-21.5 0.7-3.8 2.2-9.7 3.3-13 1.1-3.3 4.5-10.3 7.6-15.5 3.1-5.2 8.1-11.9 11.2-14.9 3-3 8.4-7.8 12-10.6 3.6-2.9 9.8-6.9 13.8-8.9 3.9-2 9.1-4.2 11.5-5 2.3-0.8 5.5-1.7 7.2-2.1 1.7-0.4 6.8-1.1 11.5-1.5 4.7-0.5 13.2-0.6 19-0.3zm-24.5 59.1c-2.2 1.5-4.7 3.4-5.6 4.2-0.9 0.8-3 3.5-4.6 6-2.3 3.3-3.4 6.4-4.1 11.5-0.5 3.9-0.6 9.4-0.1 12.5 0.4 3 0.8 6.2 0.8 7 0 0.8 2.6 4.4 5.7 8 3.1 3.6 7.2 7.2 9.2 8.1 2.1 0.9 6.3 2.3 9.5 3.2 5.3 1.6 6.1 1.6 12 0.1 3.4-0.9 8-2.5 10.2-3.5 2.2-1 5.6-3.5 7.5-5.5 1.9-2.1 4.1-4.9 4.9-6.3 0.7-1.4 2-3.9 2.9-5.6 1.1-2.2 1.4-5.4 1.1-12.5l-0.4-9.5c-8.6-12.2-11.4-15.1-15-17.1-2.7-1.6-6.3-3.4-8-4.1-1.6-0.6-6.2-1.2-10-1.2-3.8 0-8.1 0.5-9.5 1-1.4 0.6-4.3 2.2-6.5 3.7zm-923.3-986.8c2.7 0 6 0.6 7.6 1.4 1.5 0.8 3.7 2.5 4.9 3.8 1.2 1.2 3.2 4.5 4.4 7.3 1.7 3.9 2 6.1 1.5 10-0.3 2.7-2 7.5-3.7 10.5-1.8 3-5.4 8.2-8.1 11.5-2.8 3.3-16.1 17.5-29.7 31.5-13.5 14-29.3 30.3-35.1 36.3-6.8 7-12.2 11.6-15.5 13.3-3 1.4-6.7 2.4-9.2 2.4-2.4 0-5.5-0.5-7-1.1-1.6-0.6-5.3-3-8.3-5.4-3-2.3-12.2-11-20.5-19.3-8.2-8.2-16.7-17.4-18.7-20.3-2.1-3-4.5-7.4-5.4-9.9-1.3-3.8-1.3-5.3-0.3-9.5 0.9-3.7 2.4-6.2 5.8-9.5 2.7-2.6 6.3-5.1 8.6-5.8 2.2-0.6 5.4-1.2 7-1.2 1.6 0 5.9 1.4 9.5 3.2 4.7 2.3 9.1 5.8 15.8 12.5 5 5.1 10.2 9.6 11.5 9.9 1.2 0.3 3.6 0.4 5.2 0.1 2.1-0.4 5-2.8 9.9-8.4 3.8-4.3 18.3-19.4 32.2-33.6 14-14.1 27.1-26.6 29.2-27.7 2.1-1.1 5.8-1.9 8.5-2zm-2.8 445.3c2.2 0.2 6.1 1.5 8.8 3 3.6 2.1 5.2 3.8 6.9 7.4 1.6 3.6 2 6.1 1.6 9.8-0.2 2.7-1.3 6.8-2.3 9-1.2 2.7-15.1 17.3-41.9 44.2q-40.1 40.1-44.3 42.2c-2.4 1.2-6.2 2.1-8.5 2.1-2.4 0-6.3-1-8.8-2.2-3-1.5-11.7-9.4-26.1-23.8-13.1-13.1-22.7-23.5-24.4-26.5-2-3.5-2.8-6.4-2.8-9.5 0-2.5 0.7-5.8 1.5-7.5 0.9-1.7 3.3-4.6 5.4-6.6 2.6-2.3 5.6-3.9 8.9-4.7 3.8-0.9 6.2-0.9 10 0.1 2.8 0.7 6.9 2.4 9 3.9 2.2 1.5 8.4 7.2 13.8 12.7 7.6 7.9 10.3 10.1 12.4 10.1 1.6 0 4.6-1.1 6.8-2.6 2.2-1.5 15.5-14.1 29.5-28 14-13.9 26.9-26.3 28.5-27.6 1.6-1.2 5-3 7.5-4 2.5-1 6.3-1.7 8.5-1.5z"/>
</svg>